<mxfile host="Electron" modified="2024-06-18T12:29:15.338Z" agent="Mozilla/5.0 (Windows NT 10.0; Win64; x64) AppleWebKit/537.36 (KHTML, like Gecko) draw.io/22.1.21 Chrome/120.0.6099.109 Electron/28.1.0 Safari/537.36" etag="CWjY7xCulGQV0hHC9wUp" version="22.1.21" type="device">
  <diagram name="Page-1" id="bf55CM-UF1sACK0ydFgU">
    <mxGraphModel dx="1434" dy="854" grid="1" gridSize="10" guides="1" tooltips="1" connect="1" arrows="1" fold="1" page="1" pageScale="1" pageWidth="850" pageHeight="1100" math="0" shadow="0">
      <root>
        <mxCell id="0" />
        <mxCell id="1" parent="0" />
        <mxCell id="A-W998lmlx4RPp3HRFfS-11" value="" style="rounded=0;whiteSpace=wrap;html=1;labelPosition=center;verticalLabelPosition=middle;align=center;verticalAlign=top;strokeColor=none;" parent="1" vertex="1">
          <mxGeometry x="20" y="120" width="650" height="320" as="geometry" />
        </mxCell>
        <mxCell id="A-W998lmlx4RPp3HRFfS-10" value="Pipeline" style="rounded=0;whiteSpace=wrap;html=1;labelPosition=center;verticalLabelPosition=middle;align=center;verticalAlign=top;fillColor=none;dashed=1;" parent="1" vertex="1">
          <mxGeometry x="60" y="170" width="570" height="230" as="geometry" />
        </mxCell>
        <mxCell id="A-W998lmlx4RPp3HRFfS-5" style="edgeStyle=orthogonalEdgeStyle;rounded=0;orthogonalLoop=1;jettySize=auto;html=1;exitX=1;exitY=0.5;exitDx=0;exitDy=0;" parent="1" source="A-W998lmlx4RPp3HRFfS-3" target="A-W998lmlx4RPp3HRFfS-4" edge="1">
          <mxGeometry relative="1" as="geometry" />
        </mxCell>
        <mxCell id="A-W998lmlx4RPp3HRFfS-1" value="Operator" style="rounded=0;whiteSpace=wrap;html=1;labelPosition=center;verticalLabelPosition=middle;align=center;verticalAlign=top;" parent="1" vertex="1">
          <mxGeometry x="120" y="230" width="180" height="110" as="geometry" />
        </mxCell>
        <mxCell id="A-W998lmlx4RPp3HRFfS-2" value="Operator" style="rounded=0;whiteSpace=wrap;html=1;labelPosition=center;verticalLabelPosition=middle;align=center;verticalAlign=top;" parent="1" vertex="1">
          <mxGeometry x="380" y="230" width="180" height="110" as="geometry" />
        </mxCell>
        <mxCell id="A-W998lmlx4RPp3HRFfS-3" value="&lt;font style=&quot;font-size: 8px;&quot;&gt;OutputPortPlugin&lt;/font&gt;" style="rounded=0;whiteSpace=wrap;html=1;labelPosition=center;verticalLabelPosition=middle;align=center;verticalAlign=middle;" parent="1" vertex="1">
          <mxGeometry x="230" y="285" width="70" height="30" as="geometry" />
        </mxCell>
        <mxCell id="A-W998lmlx4RPp3HRFfS-4" value="&lt;font style=&quot;font-size: 9px;&quot;&gt;InputPortPlugin&lt;/font&gt;" style="rounded=0;whiteSpace=wrap;html=1;labelPosition=center;verticalLabelPosition=middle;align=center;verticalAlign=middle;" parent="1" vertex="1">
          <mxGeometry x="380" y="285" width="70" height="30" as="geometry" />
        </mxCell>
        <mxCell id="A-W998lmlx4RPp3HRFfS-9" style="edgeStyle=orthogonalEdgeStyle;rounded=0;orthogonalLoop=1;jettySize=auto;html=1;entryX=0;entryY=0.5;entryDx=0;entryDy=0;" parent="1" source="A-W998lmlx4RPp3HRFfS-6" target="6Dt9DNQeEz2n9RXmRznF-1" edge="1">
          <mxGeometry relative="1" as="geometry">
            <mxPoint x="640" y="300" as="targetPoint" />
            <Array as="points">
              <mxPoint x="580" y="300" />
              <mxPoint x="580" y="370" />
              <mxPoint x="100" y="370" />
              <mxPoint x="100" y="300" />
            </Array>
          </mxGeometry>
        </mxCell>
        <mxCell id="A-W998lmlx4RPp3HRFfS-6" value="&lt;font style=&quot;font-size: 8px;&quot;&gt;OutputPortPlugin&lt;/font&gt;" style="rounded=0;whiteSpace=wrap;html=1;labelPosition=center;verticalLabelPosition=middle;align=center;verticalAlign=middle;" parent="1" vertex="1">
          <mxGeometry x="490" y="285" width="70" height="30" as="geometry" />
        </mxCell>
        <mxCell id="6Dt9DNQeEz2n9RXmRznF-1" value="&lt;font style=&quot;font-size: 9px;&quot;&gt;InputPortPlugin&lt;/font&gt;" style="rounded=0;whiteSpace=wrap;html=1;labelPosition=center;verticalLabelPosition=middle;align=center;verticalAlign=middle;" vertex="1" parent="1">
          <mxGeometry x="120" y="285" width="70" height="30" as="geometry" />
        </mxCell>
      </root>
    </mxGraphModel>
  </diagram>
</mxfile>
